<svg xmlns="http://www.w3.org/2000/svg" version="1.1" xmlns:xlink="http://www.w3.org/1999/xlink" xmlns:svgjs="http://svgjs.dev/svgjs" width="1000" height="292" viewBox="0 0 1000 292"><g transform="matrix(1,0,0,1,-0.6060441998312172,-0.504610969865638)"><svg viewBox="0 0 396 116" data-background-color="#ffffff" preserveAspectRatio="xMidYMid meet" height="292" width="1000" xmlns="http://www.w3.org/2000/svg" xmlns:xlink="http://www.w3.org/1999/xlink"><g id="tight-bounds" transform="matrix(1,0,0,1,0.2399935031331779,0.20046189213840648)"><svg viewBox="0 0 395.52 115.59900495130124" height="115.59900495130124" width="395.52"><g><svg viewBox="0 0 608.137388475412 177.7408904263768" height="115.59900495130124" width="395.52"><g transform="matrix(1,0,0,1,212.61738847541199,51.93689621939492)"><svg viewBox="0 0 395.52 73.86709798758697" height="73.86709798758697" width="395.52"><g id="textblocktransform"><svg viewBox="0 0 395.52 73.86709798758697" height="73.86709798758697" width="395.52" id="textblock"><g><svg viewBox="0 0 395.52 73.86709798758697" height="73.86709798758697" width="395.52"><g transform="matrix(1,0,0,1,0,0)"><svg width="395.52" viewBox="5 -39 265.8299865722656 49.650001525878906" height="73.86709798758697" data-palette-color="#ba3b0a"><path d="M20.2-18.2Q23.75-17.6 25.95-15.7 28.15-13.8 28.15-9.8L28.15-9.8Q28.15 0 14.5 0L14.5 0 5 0 5-34.45 13.15-34.45Q19.7-34.45 23.18-32.3 26.65-30.15 26.65-25.75L26.65-25.75Q26.65-22.75 24.78-20.75 22.9-18.75 20.2-18.2L20.2-18.2ZM13.65-30.7L9.75-30.7 9.75-19.85 14.95-19.85Q17.95-19.85 19.88-21.3 21.8-22.75 21.8-25.4L21.8-25.4Q21.8-28.4 19.78-29.55 17.75-30.7 13.65-30.7L13.65-30.7ZM14.5-3.8Q18.7-3.8 20.93-5.05 23.15-6.3 23.15-9.8L23.15-9.8Q23.15-13.2 21-14.7 18.85-16.2 15.4-16.2L15.4-16.2 9.75-16.2 9.75-3.8 14.5-3.8ZM46.6-26.95Q48-26.95 49.2-26.65L49.2-26.65 48.35-22.15Q47.15-22.45 46.05-22.45L46.05-22.45Q43.6-22.45 42.1-20.65 40.6-18.85 39.75-15.05L39.75-15.05 39.75 0 35.15 0 35.15-26.35 39.1-26.35 39.55-21Q40.6-23.95 42.4-25.45 44.2-26.95 46.6-26.95L46.6-26.95ZM54.45-26.35L59.05-26.35 59.05 0 54.45 0 54.45-26.35ZM56.7-39Q58.15-39 59.05-38.1 59.95-37.2 59.95-35.85L59.95-35.85Q59.95-34.5 59.05-33.63 58.15-32.75 56.7-32.75L56.7-32.75Q55.3-32.75 54.4-33.63 53.5-34.5 53.5-35.85L53.5-35.85Q53.5-37.2 54.4-38.1 55.3-39 56.7-39L56.7-39ZM88.44-29.3L89.79-25.15Q88.29-24.65 86.49-24.5 84.69-24.35 82.09-24.35L82.09-24.35Q86.74-22.25 86.74-17.7L86.74-17.7Q86.74-13.75 84.04-11.25 81.34-8.75 76.69-8.75L76.69-8.75Q74.89-8.75 73.34-9.25L73.34-9.25Q72.74-8.85 72.39-8.18 72.04-7.5 72.04-6.8L72.04-6.8Q72.04-4.65 75.49-4.65L75.49-4.65 79.69-4.65Q82.34-4.65 84.39-3.7 86.44-2.75 87.57-1.1 88.69 0.55 88.69 2.65L88.69 2.65Q88.69 6.5 85.54 8.58 82.39 10.65 76.34 10.65L76.34 10.65Q72.09 10.65 69.62 9.78 67.14 8.9 66.09 7.15 65.04 5.4 65.04 2.65L65.04 2.65 69.19 2.65Q69.19 4.25 69.79 5.18 70.39 6.1 71.94 6.58 73.49 7.05 76.34 7.05L76.34 7.05Q80.49 7.05 82.27 6.03 84.04 5 84.04 2.95L84.04 2.95Q84.04 1.1 82.64 0.15 81.24-0.8 78.74-0.8L78.74-0.8 74.59-0.8Q71.24-0.8 69.52-2.23 67.79-3.65 67.79-5.8L67.79-5.8Q67.79-7.1 68.54-8.3 69.29-9.5 70.69-10.45L70.69-10.45Q68.39-11.65 67.32-13.43 66.24-15.2 66.24-17.75L66.24-17.75Q66.24-20.4 67.57-22.5 68.89-24.6 71.22-25.78 73.54-26.95 76.39-26.95L76.39-26.95Q79.49-26.9 81.59-27.18 83.69-27.45 85.07-27.93 86.44-28.4 88.44-29.3L88.44-29.3ZM76.39-23.65Q73.79-23.65 72.37-22.03 70.94-20.4 70.94-17.75L70.94-17.75Q70.94-15.05 72.39-13.43 73.84-11.8 76.49-11.8L76.49-11.8Q79.19-11.8 80.62-13.38 82.04-14.95 82.04-17.8L82.04-17.8Q82.04-23.65 76.39-23.65L76.39-23.65ZM106.94-26.95Q110.54-26.95 112.57-24.8 114.59-22.65 114.59-18.9L114.59-18.9 114.59 0 109.99 0 109.99-18.25Q109.99-21.05 108.92-22.2 107.84-23.35 105.79-23.35L105.79-23.35Q103.74-23.35 102.14-22.15 100.54-20.95 99.14-18.75L99.14-18.75 99.14 0 94.54 0 94.54-36.9 99.14-37.4 99.14-22.7Q102.24-26.95 106.94-26.95L106.94-26.95ZM135.39-4.25L137.14-1.2Q134.54 0.6 131.24 0.6L131.24 0.6Q127.89 0.6 126.01-1.33 124.14-3.25 124.14-6.9L124.14-6.9 124.14-22.8 119.54-22.8 119.54-26.35 124.14-26.35 124.14-32.3 128.74-32.85 128.74-26.35 134.99-26.35 134.49-22.8 128.74-22.8 128.74-7.1Q128.74-5.05 129.46-4.13 130.19-3.2 131.89-3.2L131.89-3.2Q133.44-3.2 135.39-4.25L135.39-4.25ZM161.79-13.95Q161.79-12.8 161.69-11.6L161.69-11.6 144.89-11.6Q145.19-7.25 147.09-5.2 148.99-3.15 151.99-3.15L151.99-3.15Q153.89-3.15 155.49-3.7 157.09-4.25 158.84-5.45L158.84-5.45 160.84-2.7Q156.64 0.6 151.64 0.6L151.64 0.6Q146.14 0.6 143.06-3 139.99-6.6 139.99-12.9L139.99-12.9Q139.99-17 141.31-20.18 142.64-23.35 145.11-25.15 147.59-26.95 150.94-26.95L150.94-26.95Q156.19-26.95 158.99-23.5 161.79-20.05 161.79-13.95L161.79-13.95ZM157.24-15L157.24-15.3Q157.24-19.2 155.69-21.25 154.14-23.3 151.04-23.3L151.04-23.3Q145.39-23.3 144.89-15L144.89-15 157.24-15ZM180.58-26.95Q181.98-26.95 183.18-26.65L183.18-26.65 182.33-22.15Q181.13-22.45 180.03-22.45L180.03-22.45Q177.58-22.45 176.08-20.65 174.58-18.85 173.73-15.05L173.73-15.05 173.73 0 169.13 0 169.13-26.35 173.08-26.35 173.53-21Q174.58-23.95 176.38-25.45 178.18-26.95 180.58-26.95L180.58-26.95ZM214.13-26.35L218.53-26.35 212.53 0 206.28 0 201.68-22.2 196.93 0 190.83 0 184.68-26.35 189.28-26.35 194.03-3.2 199.23-26.35 204.38-26.35 209.33-3.2 214.13-26.35ZM242.03-6.15Q242.03-4.55 242.58-3.78 243.13-3 244.23-2.6L244.23-2.6 243.18 0.6Q241.13 0.35 239.88-0.55 238.63-1.45 238.03-3.35L238.03-3.35Q235.38 0.6 230.18 0.6L230.18 0.6Q226.28 0.6 224.03-1.6 221.78-3.8 221.78-7.35L221.78-7.35Q221.78-11.55 224.8-13.8 227.83-16.05 233.38-16.05L233.38-16.05 237.43-16.05 237.43-18Q237.43-20.8 236.08-22 234.73-23.2 231.93-23.2L231.93-23.2Q229.03-23.2 224.83-21.8L224.83-21.8 223.68-25.15Q228.58-26.95 232.78-26.95L232.78-26.95Q237.43-26.95 239.73-24.68 242.03-22.4 242.03-18.2L242.03-18.2 242.03-6.15ZM231.23-2.85Q235.18-2.85 237.43-6.95L237.43-6.95 237.43-13 233.98-13Q226.68-13 226.68-7.6L226.68-7.6Q226.68-5.25 227.83-4.05 228.98-2.85 231.23-2.85L231.23-2.85ZM270.83-26.35L262.03 0.15Q260.48 4.75 257.7 7.43 254.93 10.1 249.78 10.65L249.78 10.65 249.28 7.05Q251.88 6.6 253.43 5.75 254.98 4.9 255.9 3.58 256.83 2.25 257.63 0L257.63 0 256.08 0 247.23-26.35 252.13-26.35 259.18-3.35 266.08-26.35 270.83-26.35Z" opacity="1" transform="matrix(1,0,0,1,0,0)" fill="#ba3b0a" class="wordmark-text-0" data-fill-palette-color="primary" id="text-0"></path></svg></g></svg></g></svg></g></svg></g><g><svg viewBox="0 0 177.7408904263768 177.7408904263768" height="177.7408904263768" width="177.7408904263768"><g><svg></svg></g><g id="icon-0"><svg viewBox="0 0 177.7408904263768 177.7408904263768" height="177.7408904263768" width="177.7408904263768"><g><path d="M0 88.87c0-49.082 39.789-88.87 88.87-88.87 49.082 0 88.87 39.789 88.871 88.87 0 49.082-39.789 88.87-88.871 88.871-49.082 0-88.87-39.789-88.87-88.871zM88.87 171.079c45.403 0 82.209-36.806 82.209-82.209 0-45.403-36.806-82.209-82.209-82.209-45.403 0-82.209 36.806-82.209 82.209 0 45.403 36.806 82.209 82.209 82.209z" data-fill-palette-color="accent" fill="#e8772e" stroke="transparent"></path><ellipse rx="87.98174076105651" ry="87.98174076105651" cx="88.8704452131884" cy="88.8704452131884" fill="#e8772e" stroke="transparent" stroke-width="0" fill-opacity="1" data-fill-palette-color="accent"></ellipse></g><g transform="matrix(1,0,0,1,39.214493789692874,39.38183334583967)"><svg viewBox="0 0 99.31190284699106 98.97722373469747" height="98.97722373469747" width="99.31190284699106"><g><svg version="1.0" xmlns="http://www.w3.org/2000/svg" xmlns:xlink="http://www.w3.org/1999/xlink" x="0" y="0" viewBox="0 0 100 99.66300201416016" enable-background="new 0 0 100 99.663" xml:space="preserve" width="99.31190284699106" height="98.97722373469747" class="icon-s-0" data-fill-palette-color="quaternary" id="s-0"><path d="M47.8 0h4.473v16.999H47.8V0z" fill="#ffffff" data-fill-palette-color="quaternary"></path><path d="M47.536 82.663h4.472v17h-4.472V82.663z" fill="#ffffff" data-fill-palette-color="quaternary"></path><path d="M83.003 46.546H100v4.459H83.003V46.546z" fill="#ffffff" data-fill-palette-color="quaternary"></path><path d="M0 46.269h16.999v4.473H0V46.269z" fill="#ffffff" data-fill-palette-color="quaternary"></path><path d="M6.473 25.4l2.17-3.906 14.853 8.235-2.171 3.918L6.473 25.4z" fill="#ffffff" data-fill-palette-color="quaternary"></path><path d="M24.304 7.222l3.785-2.376 9.018 14.419-3.786 2.363L24.304 7.222z" fill="#ffffff" data-fill-palette-color="quaternary"></path><path d="M64.728 78.916l3.856-2.219 8.499 14.721-3.857 2.229L64.728 78.916z" fill="#ffffff" data-fill-palette-color="quaternary"></path><path d="M77.723 67.028l2.17-3.905 14.876 8.235-2.182 3.918L77.723 67.028z" fill="#ffffff" data-fill-palette-color="quaternary"></path><path d="M27.1 93.852l-3.905-2.17 8.235-14.876 3.918 2.159L27.1 93.852z" fill="#ffffff" data-fill-palette-color="quaternary"></path><path d="M7.342 74.962L4.99 71.177l14.407-9.019 2.363 3.787L7.342 74.962z" fill="#ffffff" data-fill-palette-color="quaternary"></path><path d="M79.324 35.069l-2.241-3.881 14.719-8.5 2.243 3.882L79.324 35.069z" fill="#ffffff" data-fill-palette-color="quaternary"></path><path d="M67.956 22.327l-3.918-2.181 8.246-14.853 3.907 2.171L67.956 22.327z" fill="#ffffff" data-fill-palette-color="quaternary"></path><path d="M22.436 49.777c0-15.25 12.369-27.62 27.619-27.62 15.238 0 27.597 12.37 27.597 27.62 0 15.25-12.358 27.605-27.597 27.605C34.805 77.385 22.436 65.027 22.436 49.777" fill="#ffffff" data-fill-palette-color="quaternary"></path></svg></g></svg></g></svg></g></svg></g></svg></g><defs></defs></svg><rect width="395.52" height="115.59900495130124" fill="none" stroke="none" visibility="hidden"></rect></g></svg></g></svg>